<mxfile host="Electron" modified="2024-03-09T22:49:33.478Z" agent="Mozilla/5.0 (Windows NT 10.0; Win64; x64) AppleWebKit/537.36 (KHTML, like Gecko) draw.io/23.1.5 Chrome/120.0.6099.109 Electron/28.1.0 Safari/537.36" etag="S_9YlQ0kOWdeqgkscZq0" version="23.1.5" type="device">
  <diagram id="LdKvfCDa8RjUUC_c0zoU" name="Page-1">
    <mxGraphModel dx="1098" dy="658" grid="1" gridSize="10" guides="1" tooltips="1" connect="1" arrows="1" fold="1" page="1" pageScale="1" pageWidth="827" pageHeight="1169" math="0" shadow="0">
      <root>
        <mxCell id="0" />
        <mxCell id="1" parent="0" />
        <mxCell id="hjSwI5PDpPuFmJWyF_WU-24" value="" style="shape=table;startSize=0;container=1;collapsible=0;childLayout=tableLayout;strokeWidth=2;strokeColor=default;fontSize=16;perimeterSpacing=2;" parent="1" vertex="1">
          <mxGeometry x="40" y="17" width="780" height="80" as="geometry" />
        </mxCell>
        <mxCell id="hjSwI5PDpPuFmJWyF_WU-25" value="" style="shape=tableRow;horizontal=0;startSize=0;swimlaneHead=0;swimlaneBody=0;top=0;left=0;bottom=0;right=0;collapsible=0;dropTarget=0;fillColor=none;points=[[0,0.5],[1,0.5]];portConstraint=eastwest;fontSize=16;strokeWidth=2;perimeterSpacing=2;" parent="hjSwI5PDpPuFmJWyF_WU-24" vertex="1">
          <mxGeometry width="780" height="40" as="geometry" />
        </mxCell>
        <mxCell id="hjSwI5PDpPuFmJWyF_WU-26" value="作品番号" style="shape=partialRectangle;html=1;whiteSpace=wrap;connectable=0;overflow=hidden;fillColor=#1ba1e2;top=0;left=0;bottom=0;right=0;pointerEvents=1;fontColor=#ffffff;strokeColor=#006EAF;strokeWidth=2;fontSize=16;perimeterSpacing=2;" parent="hjSwI5PDpPuFmJWyF_WU-25" vertex="1">
          <mxGeometry width="160" height="40" as="geometry">
            <mxRectangle width="160" height="40" as="alternateBounds" />
          </mxGeometry>
        </mxCell>
        <mxCell id="hjSwI5PDpPuFmJWyF_WU-27" value="概要" style="shape=partialRectangle;html=1;whiteSpace=wrap;connectable=0;overflow=hidden;fillColor=#1ba1e2;top=0;left=0;bottom=0;right=0;pointerEvents=1;fontColor=#ffffff;strokeColor=#006EAF;strokeWidth=2;fontSize=16;perimeterSpacing=2;" parent="hjSwI5PDpPuFmJWyF_WU-25" vertex="1">
          <mxGeometry x="160" width="400" height="40" as="geometry">
            <mxRectangle width="400" height="40" as="alternateBounds" />
          </mxGeometry>
        </mxCell>
        <mxCell id="hjSwI5PDpPuFmJWyF_WU-28" value="作品名" style="shape=partialRectangle;html=1;whiteSpace=wrap;connectable=0;overflow=hidden;fillColor=#1ba1e2;top=0;left=0;bottom=0;right=0;pointerEvents=1;fontColor=#ffffff;strokeColor=none;strokeWidth=2;fontSize=16;perimeterSpacing=2;" parent="hjSwI5PDpPuFmJWyF_WU-25" vertex="1">
          <mxGeometry x="560" width="220" height="40" as="geometry">
            <mxRectangle width="220" height="40" as="alternateBounds" />
          </mxGeometry>
        </mxCell>
        <mxCell id="hjSwI5PDpPuFmJWyF_WU-29" value="" style="shape=tableRow;horizontal=0;startSize=0;swimlaneHead=0;swimlaneBody=0;top=0;left=0;bottom=0;right=0;collapsible=0;dropTarget=0;fillColor=none;points=[[0,0.5],[1,0.5]];portConstraint=eastwest;fontSize=16;strokeWidth=2;perimeterSpacing=2;" parent="hjSwI5PDpPuFmJWyF_WU-24" vertex="1">
          <mxGeometry y="40" width="780" height="40" as="geometry" />
        </mxCell>
        <mxCell id="hjSwI5PDpPuFmJWyF_WU-30" value="4" style="shape=partialRectangle;html=1;whiteSpace=wrap;connectable=0;overflow=hidden;fillColor=none;top=0;left=0;bottom=0;right=0;pointerEvents=1;strokeWidth=2;fontSize=16;perimeterSpacing=2;" parent="hjSwI5PDpPuFmJWyF_WU-29" vertex="1">
          <mxGeometry width="160" height="40" as="geometry">
            <mxRectangle width="160" height="40" as="alternateBounds" />
          </mxGeometry>
        </mxCell>
        <mxCell id="hjSwI5PDpPuFmJWyF_WU-31" value="デジタルサイネージ" style="shape=partialRectangle;html=1;whiteSpace=wrap;connectable=0;overflow=hidden;fillColor=none;top=0;left=0;bottom=0;right=0;pointerEvents=1;strokeWidth=2;fontSize=16;perimeterSpacing=2;" parent="hjSwI5PDpPuFmJWyF_WU-29" vertex="1">
          <mxGeometry x="160" width="400" height="40" as="geometry">
            <mxRectangle width="400" height="40" as="alternateBounds" />
          </mxGeometry>
        </mxCell>
        <mxCell id="hjSwI5PDpPuFmJWyF_WU-32" value="greetingBoard" style="shape=partialRectangle;html=1;whiteSpace=wrap;connectable=0;overflow=hidden;fillColor=none;top=0;left=0;bottom=0;right=0;pointerEvents=1;strokeWidth=2;fontSize=16;perimeterSpacing=2;" parent="hjSwI5PDpPuFmJWyF_WU-29" vertex="1">
          <mxGeometry x="560" width="220" height="40" as="geometry">
            <mxRectangle width="220" height="40" as="alternateBounds" />
          </mxGeometry>
        </mxCell>
        <mxCell id="hjSwI5PDpPuFmJWyF_WU-33" value="" style="shape=table;startSize=0;container=1;collapsible=0;childLayout=tableLayout;strokeWidth=2;strokeColor=#000000;fillColor=#1ba1e2;fontColor=#ffffff;swimlaneLine=1;rounded=0;verticalAlign=top;align=left;fontSize=16;perimeterSpacing=2;" parent="1" vertex="1">
          <mxGeometry x="40" y="111" width="780" height="180" as="geometry" />
        </mxCell>
        <mxCell id="hjSwI5PDpPuFmJWyF_WU-34" value="" style="shape=tableRow;horizontal=0;startSize=0;swimlaneHead=0;swimlaneBody=0;top=0;left=0;bottom=0;right=0;collapsible=0;dropTarget=0;fillColor=none;points=[[0,0.5],[1,0.5]];portConstraint=eastwest;verticalAlign=top;fontSize=16;strokeWidth=2;perimeterSpacing=2;" parent="hjSwI5PDpPuFmJWyF_WU-33" vertex="1">
          <mxGeometry width="780" height="180" as="geometry" />
        </mxCell>
        <mxCell id="hjSwI5PDpPuFmJWyF_WU-35" value="機能" style="shape=partialRectangle;html=1;whiteSpace=wrap;connectable=0;overflow=hidden;fillColor=#1ba1e2;top=0;left=0;bottom=0;right=0;pointerEvents=1;fontColor=#ffffff;strokeColor=#000000;strokeWidth=2;fontSize=16;perimeterSpacing=2;" parent="hjSwI5PDpPuFmJWyF_WU-34" vertex="1">
          <mxGeometry width="160" height="180" as="geometry">
            <mxRectangle width="160" height="180" as="alternateBounds" />
          </mxGeometry>
        </mxCell>
        <mxCell id="hjSwI5PDpPuFmJWyF_WU-36" value="&lt;span style=&quot;font-family: Helvetica; font-size: 16px; font-style: normal; font-variant-ligatures: normal; font-variant-caps: normal; font-weight: 400; letter-spacing: normal; orphans: 2; text-align: left; text-indent: 0px; text-transform: none; widows: 2; word-spacing: 0px; -webkit-text-stroke-width: 0px; text-decoration-thickness: initial; text-decoration-style: initial; text-decoration-color: initial; float: none; display: inline !important;&quot;&gt;・一日を7つの時間帯に分割し、各々の時間帯にあったバックグラウンドイメージと&lt;br&gt;　挨拶の言葉を表示する機能&lt;br&gt;&lt;/span&gt;・日時表示機能&lt;br style=&quot;border-color: var(--border-color);&quot;&gt;&lt;span style=&quot;font-family: Helvetica; font-size: 16px; font-style: normal; font-variant-ligatures: normal; font-variant-caps: normal; font-weight: 400; letter-spacing: normal; orphans: 2; text-align: left; text-indent: 0px; text-transform: none; widows: 2; word-spacing: 0px; -webkit-text-stroke-width: 0px; text-decoration-thickness: initial; text-decoration-style: initial; text-decoration-color: initial; float: none; display: inline !important;&quot;&gt;・ニュースティッカー機能&lt;br style=&quot;border-color: var(--border-color);&quot;&gt;・バックグラウンドイメージと挨拶を時間帯の切り替わりで自動的に切り替える機能&lt;/span&gt;&lt;br style=&quot;font-family: Helvetica; font-size: 16px; font-style: normal; font-variant-ligatures: normal; font-variant-caps: normal; font-weight: 400; letter-spacing: normal; orphans: 2; text-align: left; text-indent: 0px; text-transform: none; widows: 2; word-spacing: 0px; -webkit-text-stroke-width: 0px; text-decoration-thickness: initial; text-decoration-style: initial; text-decoration-color: initial;&quot;&gt;&lt;span style=&quot;font-family: Helvetica; font-size: 16px; font-style: normal; font-variant-ligatures: normal; font-variant-caps: normal; font-weight: 400; letter-spacing: normal; orphans: 2; text-align: left; text-indent: 0px; text-transform: none; widows: 2; word-spacing: 0px; -webkit-text-stroke-width: 0px; text-decoration-thickness: initial; text-decoration-style: initial; text-decoration-color: initial; float: none; display: inline !important;&quot;&gt;・フルスクリーン機能&lt;/span&gt;&lt;br style=&quot;font-family: Helvetica; font-size: 16px; font-style: normal; font-variant-ligatures: normal; font-variant-caps: normal; font-weight: 400; letter-spacing: normal; orphans: 2; text-align: left; text-indent: 0px; text-transform: none; widows: 2; word-spacing: 0px; -webkit-text-stroke-width: 0px; text-decoration-thickness: initial; text-decoration-style: initial; text-decoration-color: initial;&quot;&gt;&lt;span style=&quot;font-family: Helvetica; font-size: 16px; font-style: normal; font-variant-ligatures: normal; font-variant-caps: normal; font-weight: 400; letter-spacing: normal; orphans: 2; text-align: left; text-indent: 0px; text-transform: none; widows: 2; word-spacing: 0px; -webkit-text-stroke-width: 0px; text-decoration-thickness: initial; text-decoration-style: initial; text-decoration-color: initial; float: none; display: inline !important;&quot;&gt;・実際の時間帯の到来を待たずにバックグラウンドイメージと挨拶を確認できる機能&lt;/span&gt;&lt;br style=&quot;font-family: Helvetica; font-size: 16px; font-style: normal; font-variant-ligatures: normal; font-variant-caps: normal; font-weight: 400; letter-spacing: normal; orphans: 2; text-align: left; text-indent: 0px; text-transform: none; widows: 2; word-spacing: 0px; -webkit-text-stroke-width: 0px; text-decoration-thickness: initial; text-decoration-style: initial; text-decoration-color: initial;&quot;&gt;&lt;span style=&quot;font-family: Helvetica; font-size: 16px; font-style: normal; font-variant-ligatures: normal; font-variant-caps: normal; font-weight: 400; letter-spacing: normal; orphans: 2; text-align: left; text-indent: 0px; text-transform: none; widows: 2; word-spacing: 0px; -webkit-text-stroke-width: 0px; text-decoration-thickness: initial; text-decoration-style: initial; text-decoration-color: initial; float: none; display: inline !important;&quot;&gt;・バックグラウンドイメージ切り替わりの際に滑らかに切り替わる機能&lt;/span&gt;" style="shape=partialRectangle;html=1;whiteSpace=wrap;connectable=0;overflow=hidden;fillColor=default;top=0;left=0;bottom=0;right=0;pointerEvents=1;align=left;verticalAlign=top;strokeWidth=2;fontSize=16;perimeterSpacing=2;" parent="hjSwI5PDpPuFmJWyF_WU-34" vertex="1">
          <mxGeometry x="160" width="620" height="180" as="geometry">
            <mxRectangle width="620" height="180" as="alternateBounds" />
          </mxGeometry>
        </mxCell>
        <mxCell id="hjSwI5PDpPuFmJWyF_WU-44" value="" style="shape=table;startSize=0;container=1;collapsible=0;childLayout=tableLayout;strokeWidth=2;strokeColor=#000000;fillColor=#1ba1e2;fontColor=#ffffff;verticalAlign=top;fontSize=16;perimeterSpacing=2;" parent="1" vertex="1">
          <mxGeometry x="40" y="308" width="780" height="472" as="geometry" />
        </mxCell>
        <mxCell id="hjSwI5PDpPuFmJWyF_WU-48" value="" style="shape=tableRow;horizontal=0;startSize=0;swimlaneHead=0;swimlaneBody=0;top=0;left=0;bottom=0;right=0;collapsible=0;dropTarget=0;fillColor=none;points=[[0,0.5],[1,0.5]];portConstraint=eastwest;strokeWidth=2;fontSize=16;perimeterSpacing=2;" parent="hjSwI5PDpPuFmJWyF_WU-44" vertex="1">
          <mxGeometry width="780" height="472" as="geometry" />
        </mxCell>
        <mxCell id="hjSwI5PDpPuFmJWyF_WU-49" value="技術ポイント" style="shape=partialRectangle;html=1;whiteSpace=wrap;connectable=0;overflow=hidden;fillColor=#1ba1e2;top=0;left=0;bottom=0;right=0;pointerEvents=1;fontColor=#ffffff;strokeColor=#000000;strokeWidth=2;fontSize=16;perimeterSpacing=2;" parent="hjSwI5PDpPuFmJWyF_WU-48" vertex="1">
          <mxGeometry width="160" height="472" as="geometry">
            <mxRectangle width="160" height="472" as="alternateBounds" />
          </mxGeometry>
        </mxCell>
        <mxCell id="hjSwI5PDpPuFmJWyF_WU-50" value="&lt;div style=&quot;font-size: 16px;&quot;&gt;[言語]&lt;/div&gt;&lt;div style=&quot;font-size: 16px;&quot;&gt;・HTML Living Standard&lt;/div&gt;&lt;div style=&quot;font-size: 16px;&quot;&gt;・CSS&lt;/div&gt;&lt;div style=&quot;font-size: 16px;&quot;&gt;・JavaScript≧ES6&lt;/div&gt;&lt;div style=&quot;font-size: 16px;&quot;&gt;&lt;br&gt;&lt;/div&gt;&lt;div style=&quot;font-size: 16px;&quot;&gt;&lt;span style=&quot;background-color: initial;&quot;&gt;[ソース管理ツール・サービス]&lt;/span&gt;&lt;br&gt;&lt;/div&gt;&lt;div style=&quot;font-size: 16px;&quot;&gt;&lt;div style=&quot;border-color: var(--border-color);&quot;&gt;・local:&lt;span style=&quot;background-color: initial;&quot;&gt;&amp;nbsp;Git&lt;/span&gt;&lt;/div&gt;&lt;div style=&quot;border-color: var(--border-color);&quot;&gt;・remote:&lt;span style=&quot;background-color: initial;&quot;&gt;&amp;nbsp;GitHub&lt;/span&gt;&lt;/div&gt;&lt;div style=&quot;border-color: var(--border-color);&quot;&gt;&lt;span style=&quot;background-color: initial;&quot;&gt;&lt;br&gt;&lt;/span&gt;&lt;/div&gt;&lt;div style=&quot;border-color: var(--border-color);&quot;&gt;&lt;span style=&quot;background-color: initial;&quot;&gt;[開発環境]&lt;/span&gt;&lt;br&gt;&lt;/div&gt;&lt;/div&gt;&lt;div style=&quot;font-size: 16px;&quot;&gt;・VS Code&lt;/div&gt;&lt;div style=&quot;border-color: var(--border-color);&quot;&gt;・Node.js 20.11.1LTS&lt;/div&gt;&lt;div style=&quot;font-size: 16px;&quot;&gt;・Webpack 5&lt;br&gt;&lt;/div&gt;&lt;div style=&quot;font-size: 16px;&quot;&gt;&amp;nbsp; ・各種&lt;span style=&quot;background-color: initial; border-color: var(--border-color);&quot;&gt;pluginとloader、task runner、bundle機能などのconfiguration&lt;/span&gt;&lt;/div&gt;&lt;div style=&quot;font-size: 16px;&quot;&gt;&lt;span style=&quot;background-color: initial;&quot;&gt;・npm, ncu&lt;/span&gt;&lt;br&gt;&lt;/div&gt;&lt;div style=&quot;font-size: 16px;&quot;&gt;・サブセットフォントメーカー&lt;/div&gt;&lt;div style=&quot;font-size: 16px;&quot;&gt;・WOFFコンバータ&lt;/div&gt;&lt;div style=&quot;font-size: 16px;&quot;&gt;&lt;br&gt;&lt;/div&gt;&lt;div style=&quot;font-size: 16px;&quot;&gt;&lt;span style=&quot;background-color: initial;&quot;&gt;[公開手法]&lt;/span&gt;&lt;br&gt;&lt;/div&gt;&lt;div style=&quot;font-size: 16px;&quot;&gt;&lt;span style=&quot;background-color: initial;&quot;&gt;&lt;div&gt;・Vercel for GitHub&lt;/div&gt;&lt;div&gt;&amp;nbsp;　(live deployment)&lt;/div&gt;&lt;div&gt;&lt;br&gt;&lt;/div&gt;&lt;/span&gt;&lt;/div&gt;&lt;div style=&quot;font-size: 16px;&quot;&gt;&lt;span style=&quot;background-color: initial;&quot;&gt;[公開先]&lt;/span&gt;&lt;br&gt;&lt;/div&gt;&lt;div style=&quot;font-size: 16px;&quot;&gt;・Vercel cloud&lt;br&gt;&lt;/div&gt;" style="shape=partialRectangle;html=1;whiteSpace=wrap;connectable=0;overflow=hidden;fillColor=default;top=0;left=0;bottom=0;right=0;pointerEvents=1;align=left;horizontal=1;verticalAlign=top;strokeWidth=2;strokeColor=#000000;fontSize=16;perimeterSpacing=2;" parent="hjSwI5PDpPuFmJWyF_WU-48" vertex="1">
          <mxGeometry x="160" width="620" height="472" as="geometry">
            <mxRectangle width="620" height="472" as="alternateBounds" />
          </mxGeometry>
        </mxCell>
        <mxCell id="hjSwI5PDpPuFmJWyF_WU-54" value="" style="shape=table;startSize=0;container=1;collapsible=0;childLayout=tableLayout;strokeWidth=2;strokeColor=#000000;fillColor=#1ba1e2;fontColor=#ffffff;verticalAlign=top;fontSize=16;perimeterSpacing=2;" parent="1" vertex="1">
          <mxGeometry x="40" y="800" width="780" height="480" as="geometry" />
        </mxCell>
        <mxCell id="hjSwI5PDpPuFmJWyF_WU-61" style="shape=tableRow;horizontal=0;startSize=0;swimlaneHead=0;swimlaneBody=0;top=0;left=0;bottom=0;right=0;collapsible=0;dropTarget=0;fillColor=none;points=[[0,0.5],[1,0.5]];portConstraint=eastwest;fontSize=16;strokeWidth=2;perimeterSpacing=2;" parent="hjSwI5PDpPuFmJWyF_WU-54" vertex="1">
          <mxGeometry width="780" height="480" as="geometry" />
        </mxCell>
        <mxCell id="hjSwI5PDpPuFmJWyF_WU-62" value="学び" style="shape=partialRectangle;html=1;whiteSpace=wrap;connectable=0;overflow=hidden;fillColor=#1ba1e2;top=0;left=0;bottom=0;right=0;pointerEvents=1;align=center;fontColor=#ffffff;strokeColor=#006EAF;strokeWidth=2;fontSize=16;perimeterSpacing=2;" parent="hjSwI5PDpPuFmJWyF_WU-61" vertex="1">
          <mxGeometry width="160" height="480" as="geometry">
            <mxRectangle width="160" height="480" as="alternateBounds" />
          </mxGeometry>
        </mxCell>
        <mxCell id="hjSwI5PDpPuFmJWyF_WU-63" value="&lt;div style=&quot;font-size: 16px;&quot;&gt;[設計の重要性]&lt;/div&gt;&lt;div style=&quot;font-size: 16px;&quot;&gt;・設計レベルでのあい路は、実装ではリカバリーが困難なこと&lt;/div&gt;&lt;div style=&quot;font-size: 16px;&quot;&gt;&lt;span style=&quot;background-color: initial;&quot;&gt;&lt;br&gt;&lt;/span&gt;&lt;/div&gt;&lt;div style=&quot;font-size: 16px;&quot;&gt;&lt;span style=&quot;background-color: initial;&quot;&gt;[非同期処理]&lt;/span&gt;&lt;br&gt;&lt;/div&gt;&lt;div style=&quot;font-size: 16px;&quot;&gt;・non-blocking threadding&lt;/div&gt;&lt;div style=&quot;font-size: 16px;&quot;&gt;・callback function (高階関数)&lt;/div&gt;&lt;div style=&quot;font-size: 16px;&quot;&gt;&lt;span style=&quot;background-color: initial;&quot;&gt;&lt;br&gt;&lt;/span&gt;&lt;/div&gt;&lt;div style=&quot;font-size: 16px;&quot;&gt;&lt;span style=&quot;background-color: initial;&quot;&gt;[イベントループ]&lt;/span&gt;&lt;br&gt;&lt;/div&gt;&lt;div style=&quot;font-size: 16px;&quot;&gt;・Web worker (複数)&lt;/div&gt;&lt;div style=&quot;font-size: 16px;&quot;&gt;・worker global scope&lt;/div&gt;&lt;div style=&quot;font-size: 16px;&quot;&gt;・メッセージイベント(date/text)&lt;/div&gt;&lt;br&gt;[&lt;span style=&quot;background-color: initial;&quot;&gt;並列処理]&lt;br&gt;&lt;/span&gt;・Web workerによるmultiple threading&lt;br&gt;&lt;div style=&quot;font-size: 16px;&quot;&gt;&lt;div style=&quot;border-color: var(--border-color);&quot;&gt;&lt;br&gt;&lt;/div&gt;&lt;div style=&quot;border-color: var(--border-color);&quot;&gt;[localStroage]&lt;br style=&quot;border-color: var(--border-color);&quot;&gt;&lt;/div&gt;&lt;div style=&quot;border-color: var(--border-color);&quot;&gt;&lt;span style=&quot;border-color: var(--border-color); background-color: initial;&quot;&gt;・保持データの永続性&lt;/span&gt;&lt;/div&gt;&lt;div style=&quot;border-color: var(--border-color);&quot;&gt;&lt;span style=&quot;border-color: var(--border-color); background-color: initial;&quot;&gt;&lt;br&gt;&lt;/span&gt;&lt;/div&gt;&lt;div style=&quot;border-color: var(--border-color);&quot;&gt;&lt;span style=&quot;border-color: var(--border-color); background-color: initial;&quot;&gt;[日本語webfontサブセット化(軽量化)手法]&lt;br&gt;&lt;/span&gt;&lt;/div&gt;&lt;div style=&quot;border-color: var(--border-color);&quot;&gt;&lt;span style=&quot;border-color: var(--border-color); background-color: initial;&quot;&gt;・rendering性能の向上&lt;/span&gt;&lt;/div&gt;&lt;/div&gt;&lt;div style=&quot;font-size: 16px;&quot;&gt;&lt;span style=&quot;background-color: initial;&quot;&gt;&lt;br&gt;&lt;/span&gt;&lt;/div&gt;&lt;div style=&quot;font-size: 16px;&quot;&gt;&lt;span style=&quot;background-color: initial;&quot;&gt;[CSSによるレイアウトと画面切り替え手法]&lt;/span&gt;&lt;br&gt;&lt;/div&gt;&lt;div style=&quot;font-size: 16px;&quot;&gt;・grid layout&lt;/div&gt;&lt;div style=&quot;font-size: 16px;&quot;&gt;・ease-in-out&lt;/div&gt;" style="shape=partialRectangle;html=1;whiteSpace=wrap;connectable=0;overflow=hidden;fillColor=default;top=0;left=0;bottom=0;right=0;pointerEvents=1;align=left;strokeWidth=2;verticalAlign=top;fontSize=16;perimeterSpacing=2;" parent="hjSwI5PDpPuFmJWyF_WU-61" vertex="1">
          <mxGeometry x="160" width="620" height="480" as="geometry">
            <mxRectangle width="620" height="480" as="alternateBounds" />
          </mxGeometry>
        </mxCell>
      </root>
    </mxGraphModel>
  </diagram>
</mxfile>
